<?xml version="1.0"?>
<svg xmlns="http://www.w3.org/2000/svg" width="600" height="180" viewBox="0 0 600 180">
  <title>MCRC — Horizontal lockup</title>
  <g transform="translate(20,30)">
    <path d="M60 8 L103 23 L103 58 C103 85 84 103 60 113 C36 103 17 85 17 58 L17 23 Z" fill="#0e2a45"></path>
    <path d="M60 18 L95 30 L95 58 C95 80 80 95 60 103 C40 95 25 80 25 58 L25 30 Z" fill="none" stroke="#c8a24a" stroke-width="1.6"></path>
    <path d="M42 81 L60 71 L78 81" fill="none" stroke="#c0902f" stroke-width="8.5" stroke-linecap="round" stroke-linejoin="round"></path>
    <path d="M45 59 L60 50 L75 59" fill="none" stroke="#d8a943" stroke-width="8.5" stroke-linecap="round" stroke-linejoin="round"></path>
    <path d="M48 38 L60 30 L72 38" fill="none" stroke="#ecd08a" stroke-width="8.5" stroke-linecap="round" stroke-linejoin="round"></path>
  </g>
  <line x1="172" y1="52" x2="172" y2="128" stroke="#e4dbc9" stroke-width="2"></line>
  <text x="200" y="98" font-family="Newsreader, Georgia, serif" font-size="64" font-weight="600" fill="#0e2a45" letter-spacing="1">MCRC</text>
  <text x="203" y="126" font-family="&#39;IBM Plex Mono&#39;, monospace" font-size="15" letter-spacing="6" fill="#a3781f">TAX &amp; ACCOUNTING</text>
</svg>